<svg width="600" height="600" viewBox="0 0 600 600" fill="none" xmlns="http://www.w3.org/2000/svg">
<g clip-path="url(#clip0_312_3246)">
<path d="M263 50C157.672 50 74.6188 95.1732 28.0851 134.379C7.0606 152.093 -2.37378 179.394 0.506378 206.735C19.1833 384.036 147.753 600 263 600C378.247 600 506.817 384.036 525.494 206.735C528.374 179.394 518.939 152.093 497.915 134.379C451.381 95.1732 368.328 50 263 50Z" fill="url(#paint0_linear_312_3246)"/>
<path d="M439.89 7.08128C383.865 110.577 309.691 155.369 209.892 184.555C207.113 185.351 204.659 187.004 202.882 189.279C201.106 191.553 200.099 194.33 200.007 197.211C199.915 200.092 200.742 202.928 202.369 205.31C203.996 207.693 206.339 209.5 209.062 210.47C287.223 239.076 334.028 282.917 334.568 379.499C334.576 382.511 335.592 385.434 337.454 387.806C339.316 390.178 341.919 391.863 344.85 392.595C347.781 393.326 350.873 393.062 353.637 391.845C356.401 390.628 358.679 388.527 360.11 385.874C415.969 282.42 490.35 237.586 590.108 208.4C592.887 207.605 595.341 205.951 597.118 203.677C598.894 201.402 599.901 198.625 599.993 195.744C600.085 192.864 599.258 190.028 597.631 187.645C596.004 185.263 593.661 183.456 590.938 182.485C512.652 153.879 466.013 110.038 465.473 13.4566C465.446 10.4494 464.418 7.53622 462.551 5.17417C460.684 2.81211 458.083 1.13482 455.156 0.40543C452.229 -0.323954 449.142 -0.0641544 446.379 1.14407C443.616 2.35229 441.334 4.44057 439.89 7.08128Z" fill="#E3FF17"/>
</g>
<defs>
<linearGradient id="paint0_linear_312_3246" x1="2.93925e-06" y1="325" x2="526" y2="325" gradientUnits="userSpaceOnUse">
<stop stop-color="#6B70FF"/>
<stop offset="0.984375" stop-color="#8257FD"/>
</linearGradient>
<clipPath id="clip0_312_3246">
<rect width="600" height="600" fill="white"/>
</clipPath>
</defs>
</svg>
